<?xml version="1.0" encoding="utf-8"?>
<!-- Generator: Adobe Illustrator 16.0.3, SVG Export Plug-In . SVG Version: 6.00 Build 0)  -->
<!DOCTYPE svg PUBLIC "-//W3C//DTD SVG 1.1//EN" "http://www.w3.org/Graphics/SVG/1.1/DTD/svg11.dtd">
<svg version="1.1" id="Layer_1" xmlns="http://www.w3.org/2000/svg" viewBox="0 0 400 400" enable-background="new 0 0 400 400" xml:space="preserve">
<image display="none" overflow="visible" width="512" height="512"  transform="matrix(1 0 0 1 -56 -56)">
</image>
<path fill="#FFCD09" d="M200,0C89.543,0,0,89.543,0,200s89.543,200,200,200s200-89.543,200-200S310.457,0,200,0z M178.728,234.453
	c-0.021,8.527-0.56,17.231-2.319,25.546c-5.208,24.6-24.08,40.39-49.309,42.744c-14.042,1.311-27.655,0.19-40.709-5.327
	c-14.815-6.261-24.835-17.401-32.086-31.917c11.329-6.937,22.446-13.744,33.711-20.642c2.284,3.531,4.277,6.746,6.401,9.871
	c6.437,9.468,15.558,12.626,26.557,10.942c8.847-1.354,14.766-8.084,15.245-17.631c0.467-9.294,0.69-18.608,0.71-27.915
	c0.083-38.979,0.047-77.96,0.064-116.94c0-1.085,0.101-2.169,0.169-3.554c13.665,0,27.186,0,41.102,0
	c0.068,1.314,0.193,2.613,0.197,3.913C178.592,147.18,178.834,190.816,178.728,234.453z M311.097,296.256
	c-30.098,12.147-59.621,9.303-87.064-8.39c-10.106-6.516-17.401-16.005-23.29-27.117c11.512-6.641,22.522-12.991,33.704-19.441
	c2.114,2.831,4.023,5.51,6.055,8.091c11.745,14.917,29.725,20.508,47.715,14.875c11.974-3.747,17.51-13.231,14.357-24.614
	c-1.285-4.638-4.327-8.08-8.291-10.393c-6.012-3.508-12.188-6.803-18.535-9.651c-13.515-6.064-27.383-11.376-39.468-20.237
	c-17.249-12.65-24.513-30.187-22.966-50.878c1.906-25.521,16.478-42.954,41.312-49.272c20.739-5.277,41.165-3.841,59.466,8.946
	c7.103,4.962,14.895,14.437,18.588,21.961c-10.537,6.771-21.111,13.568-31.981,20.554c-0.997-1.557-1.881-2.965-2.792-4.356
	c-7.286-11.128-19.857-15.946-31.538-12.092c-12.587,4.153-16.872,20.243-7.277,29.453c4.383,4.208,10.16,7.19,15.703,9.916
	c10.43,5.129,21.313,9.343,31.706,14.539c11.495,5.748,21.928,13.115,29.277,23.98C355.892,241.861,344.305,282.853,311.097,296.256
	z"/>
</svg>
